<svg height="512" viewBox="0 0 60 54" width="512" xmlns="http://www.w3.org/2000/svg"><g id="Page-1" fill="none" fill-rule="evenodd"><g id="008---Submarine" fill-rule="nonzero"><g id="Icons" transform="translate(1 8)"><path id="Shape" d="m19.549 42h23.451c8.2842712 0 15-6.7157288 15-15s-6.7157288-15-15-15h-23.451c-3.5806944-.0000729-7.0432981 1.280757-9.762 3.611l-8.387 7.189c-.888551.7600107-1.40007693 1.8707527-1.4 3.04v2.32c-.00007693 1.1692473.511449 2.2799893 1.4 3.04l8.39 7.192c2.7183444 2.3284875 6.1797193 3.6081925 9.759 3.608z" fill="#ffdc00"/><path id="Shape" d="m43 12h-3c8.2842712 0 15 6.7157288 15 15s-6.7157288 15-15 15h3c8.2842712 0 15-6.7157288 15-15s-6.7157288-15-15-15z" fill="#fec108"/><g fill="#ff9801"><path id="Shape" d="m7 18v-5c0-2.209139-1.790861-4-4-4h-1c-.55228475 0-1 .44771525-1 1v13.2z"/><path id="Shape" d="m1 30.8v13.2c0 .5522847.44771525 1 1 1h1c2.209139 0 4-1.790861 4-4v-5z"/><path id="Shape" d="m28.562 0h11.438c1.1045695 0 2 .8954305 2 2v10h-18l2.621-10.485c.2226204-.89062096 1.0229774-1.51532 1.941-1.515z"/></g><path id="Shape" d="m40 0h-3c1.1045695 0 2 .8954305 2 2v10h3v-10c0-1.1045695-.8954305-2-2-2z" fill="#f57c00"/><circle id="Oval" cx="46" cy="27" fill="#02a9f4" r="5"/><path id="Shape" d="m46 22c-.5100781.007121-1.0160138.0927928-1.5.254 2.0807519.6438254 3.4994946 2.5679184 3.4994946 4.746s-1.4187427 4.1021746-3.4994946 4.746c1.8757024.5955702 3.9262648.0330725 5.2355561-1.4361857 1.3092914-1.4692582 1.6327423-3.5708265.8258444-5.3657859s-2.5934199-2.9480201-4.5614005-2.9440284z" fill="#0377bc"/><circle id="Oval" cx="31" cy="27" fill="#02a9f4" r="5"/><path id="Shape" d="m31 22c-.5100781.007121-1.0160138.0927928-1.5.254 2.0807519.6438254 3.4994946 2.5679184 3.4994946 4.746s-1.4187427 4.1021746-3.4994946 4.746c1.8757024.5955702 3.9262648.0330725 5.2355561-1.4361857 1.3092914-1.4692582 1.6327423-3.5708265.8258444-5.3657859s-2.5934199-2.9480201-4.5614005-2.9440284z" fill="#0377bc"/><circle id="Oval" cx="16" cy="27" fill="#02a9f4" r="5"/><path id="Shape" d="m16 22c-.5100781.007121-1.0160138.0927928-1.5.254 2.0807519.6438254 3.4994946 2.5679184 3.4994946 4.746s-1.4187427 4.1021746-3.4994946 4.746c1.8757024.5955702 3.9262648.0330725 5.2355561-1.4361857 1.3092914-1.4692582 1.6327423-3.5708265.8258444-5.3657859s-2.5934199-2.9480201-4.5614005-2.9440284z" fill="#0377bc"/><circle id="Oval" cx="12" cy="5" fill="#02a9f4" r="3"/><circle id="Oval" cx="3" cy="3" fill="#02a9f4" r="2"/></g><g id="Icons_copy"><path id="Shape" d="m50.1 26.851c-.1976355-.0002517-.3907649-.0590605-.555-.169-1.6404254-1.0985886-3.570693-1.684109-5.545-1.682h-3c-.5522847 0-1-.4477153-1-1s.4477153-1 1-1h3c2.3701427-.0033148 4.6874757.6999623 6.656 2.02.3658622.2449086.5285083.7002855.4005849 1.1215585-.1279235.421273-.5163176.7093216-.9565849.7094415z" fill="#f5f5f5"/><path id="Shape" d="m37 25h-1c-.5522847 0-1-.4477153-1-1s.4477153-1 1-1h1c.5522847 0 1 .4477153 1 1s-.4477153 1-1 1z" fill="#f5f5f5"/><g fill="#000"><path id="Shape" d="m44 19v-9c0-1.65685425-1.3431458-3-3-3h-2v-4c0-.55228475.4477153-1 1-1h1c.5522847 0 1-.44771525 1-1s-.4477153-1-1-1h-1c-1.6568542 0-3 1.34314575-3 3v4h-7.438c-1.3767019-.00030783-2.5769204.93644802-2.911 2.272l-2.431 9.728h-3.671c-3.8190712.000717-7.5120255 1.366954-10.412 3.852l-1.137.974v-2.826c-.00330612-2.7600532-2.23994685-4.9966939-5-5h-1c-1.1045695 0-2 .8954305-2 2v12.84c-.64911064.8654809-1 1.9181489-1 3v2.32c0 1.0818511.35088936 2.1345191 1 3v12.84c0 1.1045695.8954305 2 2 2h1c2.76005315-.0033061 4.99669388-2.2399468 5-5v-2.826l1.137.974c2.8999745 2.485046 6.5929288 3.851283 10.412 3.852h23.451c8.836556 0 16-7.163444 16-16s-7.163444-16-16-16zm-16.969-3h8.969c.5522847 0 1-.4477153 1-1s-.4477153-1-1-1h-8.469l1.06-4.242c.111161-.44569003.5116567-.75833242.971-.758h11.438c.5522847 0 1 .44771525 1 1v9h-15.719zm-23.031 2c1.65685425 0 3 1.3431458 3 3v4.54l-4 3.429v-10.969zm3 31c0 1.6568542-1.34314575 3-3 3h-1v-10.969l4 3.429zm37 0h-23.451c-3.3419111-.0007135-6.5734287-1.1963502-9.111-3.371l-8.391-7.191c-.6647658-.5701162-1.04722382-1.4022455-1.047-2.278v-.16h4c.55228475 0 1-.4477153 1-1s-.44771525-1-1-1h-4v-.16c-.00022382-.8757545.3822342-1.7078838 1.047-2.278l8.391-7.191c2.5375713-2.1746498 5.7690889-3.3702865 9.111-3.371h23.451c7.7319864.0000001 13.9999998 6.2680136 13.9999998 14s-6.2680134 13.9999999-13.9999998 14z"/><path id="Shape" d="m47 29c-2.4267735 0-4.6145912 1.4618531-5.5432772 3.7038994s-.4153515 4.8227533 1.3006365 6.5387413 4.296695 2.2293225 6.5387413 1.3006365 3.7038994-3.1165037 3.7038994-5.5432772c-.0033074-3.3123376-2.6876624-5.9966926-6-6zm0 10c-2.209139 0-4-1.790861-4-4s1.790861-4 4-4 4 1.790861 4 4-1.790861 4-4 4z"/><path id="Shape" d="m32 29c-3.3137085 0-6 2.6862915-6 6s2.6862915 6 6 6 6-2.6862915 6-6c-.0033074-3.3123376-2.6876624-5.9966926-6-6zm0 10c-2.209139 0-4-1.790861-4-4s1.790861-4 4-4 4 1.790861 4 4-1.790861 4-4 4z"/><path id="Shape" d="m17 29c-3.3137085 0-6 2.6862915-6 6s2.6862915 6 6 6 6-2.6862915 6-6c-.0033074-3.3123376-2.6876624-5.9966926-6-6zm0 10c-2.209139 0-4-1.790861-4-4s1.790861-4 4-4 4 1.790861 4 4-1.790861 4-4 4z"/><path id="Shape" d="m13 17c2.209139 0 4-1.790861 4-4s-1.790861-4-4-4-4 1.790861-4 4 1.790861 4 4 4zm0-6c1.1045695 0 2 .8954305 2 2s-.8954305 2-2 2-2-.8954305-2-2 .8954305-2 2-2z"/><path id="Shape" d="m4 14c1.65685425 0 3-1.3431458 3-3 0-1.65685425-1.34314575-3-3-3s-3 1.34314575-3 3c0 1.6568542 1.34314575 3 3 3zm0-4c.55228475 0 1 .4477153 1 1s-.44771525 1-1 1-1-.4477153-1-1 .44771525-1 1-1z"/><circle id="Oval" cx="9" cy="7" r="1"/></g></g></g></g></svg>